# Blender v2.80 (sub 74) OBJ File: ''
# www.blender.org
mtllib cone.mtl
o 锥体_锥体.002
v 0.000000 0.000000 -100.000000
v 38.268345 0.000000 -92.387947
v 70.710678 0.000000 -70.710678
v 92.387947 0.000000 -38.268341
v 100.000000 0.000000 0.000004
v 92.387947 0.000000 38.268353
v 70.710678 0.000000 70.710678
v 38.268349 0.000000 92.387947
v 0.000015 0.000000 100.000000
v -38.268322 0.000000 92.387962
v -70.710663 0.000000 70.710701
v 0.000000 400.000000 0.000000
v -92.387947 0.000000 38.268356
v -100.000000 0.000000 -0.000001
v -92.387947 0.000000 -38.268360
v -70.710655 0.000000 -70.710701
v -38.268299 0.000000 -92.387978
vt 0.250000 0.490000
vt 0.250000 0.250000
vt 0.341844 0.471731
vt 0.419706 0.419706
vt 0.471731 0.341844
vt 0.490000 0.250000
vt 0.471731 0.158156
vt 0.419706 0.080294
vt 0.341844 0.028269
vt 0.250000 0.010000
vt 0.158156 0.028269
vt 0.080294 0.080294
vt 0.028269 0.158156
vt 0.010000 0.250000
vt 0.028269 0.341844
vt 0.080294 0.419706
vt 0.158156 0.471731
vt 0.750000 0.490000
vt 0.841844 0.471731
vt 0.919706 0.419706
vt 0.971731 0.341844
vt 0.990000 0.250000
vt 0.971731 0.158156
vt 0.919706 0.080294
vt 0.841844 0.028269
vt 0.750000 0.010000
vt 0.658156 0.028269
vt 0.580294 0.080294
vt 0.528269 0.158156
vt 0.510000 0.250000
vt 0.528269 0.341844
vt 0.580294 0.419706
vt 0.658156 0.471731
vn 0.1895 0.2381 -0.9526
vn 0.5396 0.2381 -0.8075
vn 0.8075 0.2381 -0.5396
vn 0.9526 0.2381 -0.1895
vn 0.9526 0.2381 0.1895
vn 0.8075 0.2381 0.5396
vn 0.5396 0.2381 0.8075
vn 0.1895 0.2381 0.9526
vn -0.1895 0.2381 0.9526
vn -0.5396 0.2381 0.8075
vn -0.8075 0.2381 0.5396
vn -0.9526 0.2381 0.1895
vn -0.9526 0.2381 -0.1895
vn -0.8075 0.2381 -0.5396
vn -0.5396 0.2381 -0.8075
vn -0.1895 0.2381 -0.9526
vn 0.0000 -1.0000 0.0000
usemtl None
s off
f 1/1/1 12/2/1 2/3/1
f 2/3/2 12/2/2 3/4/2
f 3/4/3 12/2/3 4/5/3
f 4/5/4 12/2/4 5/6/4
f 5/6/5 12/2/5 6/7/5
f 6/7/6 12/2/6 7/8/6
f 7/8/7 12/2/7 8/9/7
f 8/9/8 12/2/8 9/10/8
f 9/10/9 12/2/9 10/11/9
f 10/11/10 12/2/10 11/12/10
f 11/12/11 12/2/11 13/13/11
f 13/13/12 12/2/12 14/14/12
f 14/14/13 12/2/13 15/15/13
f 15/15/14 12/2/14 16/16/14
f 16/16/15 12/2/15 17/17/15
f 17/17/16 12/2/16 1/1/16
f 1/18/17 2/19/17 3/20/17 4/21/17 5/22/17 6/23/17 7/24/17 8/25/17 9/26/17 10/27/17 11/28/17 13/29/17 14/30/17 15/31/17 16/32/17 17/33/17
